<svg width="36" height="36" viewBox="0 0 36 36" fill="none" xmlns="http://www.w3.org/2000/svg">
<rect width="36" height="36" rx="18" fill="#D4A850" fill-opacity="0.2"/>
<path d="M12.6869 21H23.3159M12.5159 19H23.4869M13.7439 13H22.2579M13.7439 13C13.1389 13 12.8369 13 12.6139 13.12C12.4178 13.2264 12.2629 13.3954 12.1739 13.6C12.0729 13.833 12.0979 14.134 12.1499 14.736L12.9499 24.073C13.0389 25.105 13.0829 25.623 13.3119 26.013C13.5141 26.3572 13.8147 26.633 14.1749 26.805C14.5849 27 15.1019 27 16.1389 27H19.8639C20.8999 27 21.4179 27 21.8269 26.805C22.1872 26.633 22.4878 26.3572 22.6899 26.013C22.9199 25.623 22.9639 25.106 23.0519 24.073L23.8519 14.735C23.9039 14.133 23.9299 13.833 23.8289 13.601C23.7399 13.3964 23.585 13.2274 23.3889 13.121C23.1659 13 22.8619 13 22.2579 13M13.7439 13H12.7509C11.8509 13 11.4009 13 11.1399 12.812C11.0257 12.7297 10.9301 12.6241 10.8594 12.5023C10.7888 12.3805 10.7446 12.2451 10.7299 12.105C10.6959 11.785 10.9199 11.393 11.3669 10.611C11.7009 10.026 11.8679 9.733 12.1029 9.52C12.3126 9.32942 12.5604 9.18558 12.8299 9.098C13.1299 9 13.4679 9 14.1409 9H21.8609C22.5349 9 22.8709 9 23.1729 9.098C23.4429 9.185 23.6899 9.329 23.8989 9.52C24.1339 9.733 24.3009 10.025 24.6349 10.61C25.0819 11.392 25.3059 11.784 25.2719 12.105C25.2572 12.2451 25.2131 12.3805 25.1425 12.5023C25.0718 12.6241 24.9762 12.7297 24.8619 12.812C24.6029 13 24.1509 13 23.2529 13H22.2579" stroke="#D4A850" stroke-width="2" stroke-linecap="round" stroke-linejoin="round"/>
</svg>
