<svg width="36" height="36" viewBox="0 0 36 36" fill="none" xmlns="http://www.w3.org/2000/svg">
<rect width="36" height="36" rx="18" fill="#D4A850" fill-opacity="0.2"/>
<g clip-path="url(#clip0_1641_13500)">
<path d="M12.5 20.5H12C11.7034 20.5 11.4136 20.4118 11.167 20.2471C10.9204 20.0823 10.7278 19.8482 10.6143 19.5742C10.5007 19.3001 10.4714 18.998 10.5293 18.707C10.5872 18.4162 10.7298 18.1491 10.9395 17.9395C11.1491 17.7298 11.4162 17.5872 11.707 17.5293C11.998 17.4714 12.3001 17.5007 12.5742 17.6143C12.8482 17.7278 13.0823 17.9204 13.2471 18.167C13.4118 18.4136 13.5 18.7034 13.5 19V21.5H22.5V19C22.5 18.7034 22.5882 18.4136 22.7529 18.167C22.9177 17.9204 23.1518 17.7278 23.4258 17.6143C23.6999 17.5007 24.002 17.4714 24.293 17.5293C24.5838 17.5872 24.8509 17.7298 25.0605 17.9395C25.2702 18.1491 25.4128 18.4162 25.4707 18.707C25.5286 18.998 25.4993 19.3001 25.3857 19.5742C25.2722 19.8482 25.0796 20.0823 24.833 20.2471C24.5864 20.4118 24.2966 20.5 24 20.5H23.5V25.5H12.5V20.5Z" stroke="#D4A850"/>
<path d="M18 10.4893C19.3808 10.4894 20.7111 11.0087 21.7266 11.9443C22.6186 12.7664 23.2099 13.8571 23.417 15.043C22.5676 15.168 21.7754 15.5638 21.1631 16.1797C20.4179 16.9292 20 17.9431 20 19H16C16 17.9431 15.5811 16.9292 14.8359 16.1797C14.2234 15.5636 13.4308 15.1678 12.5811 15.043C12.7881 13.857 13.3804 12.7664 14.2725 11.9443C15.288 11.0086 16.6191 10.4893 18 10.4893Z" stroke="#D4A850"/>
</g>
<defs>
<clipPath id="clip0_1641_13500">
<rect width="16" height="16" fill="white" transform="translate(10 10)"/>
</clipPath>
</defs>
</svg>
