<svg width="36" height="36" viewBox="0 0 36 36" fill="none" xmlns="http://www.w3.org/2000/svg">
<rect width="36" height="36" rx="18" fill="#D4A850" fill-opacity="0.2"/>
<path d="M18 28C12.477 28 8 23.523 8 18C8 12.477 12.477 8 18 8C23.523 8 28 12.477 28 18C28 23.523 23.523 28 18 28ZM18 26C20.1217 26 22.1566 25.1571 23.6569 23.6569C25.1571 22.1566 26 20.1217 26 18C26 15.8783 25.1571 13.8434 23.6569 12.3431C22.1566 10.8429 20.1217 10 18 10C15.8783 10 13.8434 10.8429 12.3431 12.3431C10.8429 13.8434 10 15.8783 10 18C10 20.1217 10.8429 22.1566 12.3431 23.6569C13.8434 25.1571 15.8783 26 18 26ZM19 18H23V20H17V13H19V18Z" fill="#D4A850"/>
</svg>
