<svg width="36" height="36" viewBox="0 0 36 36" fill="none" xmlns="http://www.w3.org/2000/svg">
<rect width="36" height="36" rx="18" fill="#D4A850" fill-opacity="0.2"/>
<path d="M28 18C28 12.477 23.523 8 18 8C12.477 8 8 12.477 8 18C8 23.523 12.477 28 18 28" stroke="#D4A850" stroke-width="1.5" stroke-linecap="round" stroke-linejoin="round"/>
<path d="M19.0009 8.04999C19.0009 8.04999 22.0009 12 22.0009 18M17.0009 27.95C17.0009 27.95 14.0009 24 14.0009 18C14.0009 12 17.0009 8.04999 17.0009 8.04999M8.63086 21.5H18.0009M8.63086 14.5H27.3709" stroke="#D4A850" stroke-width="1.5" stroke-linecap="round" stroke-linejoin="round"/>
<path d="M27.8792 23.9167C28.3732 24.2207 28.3422 24.9597 27.8342 25.0177L25.2672 25.3087L24.1162 27.6207C23.8882 28.0797 23.1832 27.8547 23.0662 27.2867L21.8112 21.1707C21.7122 20.6907 22.1442 20.3887 22.5612 20.6457L27.8792 23.9167Z" stroke="#D4A850" stroke-width="1.5"/>
</svg>
