<svg width="36" height="36" viewBox="0 0 36 36" fill="none" xmlns="http://www.w3.org/2000/svg">
<rect width="36" height="36" rx="18" fill="#D4A850" fill-opacity="0.2"/>
<path d="M18.5598 26.8198C18.3966 26.937 18.2007 27 17.9998 27C17.7988 27 17.603 26.937 17.4398 26.8198C12.6108 23.3778 7.48578 16.2978 12.6668 11.1818C14.0891 9.78261 16.0046 8.99888 17.9998 8.99976C19.9998 8.99976 21.9188 9.78476 23.3328 11.1808C28.5138 16.2968 23.3888 23.3758 18.5598 26.8198Z" stroke="#D4A850" stroke-width="1.5" stroke-linecap="round" stroke-linejoin="round"/>
<path d="M18 17.9998C18.5304 17.9998 19.0391 17.789 19.4142 17.414C19.7893 17.0389 20 16.5302 20 15.9998C20 15.4693 19.7893 14.9606 19.4142 14.5855C19.0391 14.2105 18.5304 13.9998 18 13.9998C17.4696 13.9998 16.9609 14.2105 16.5858 14.5855C16.2107 14.9606 16 15.4693 16 15.9998C16 16.5302 16.2107 17.0389 16.5858 17.414C16.9609 17.789 17.4696 17.9998 18 17.9998Z" stroke="#D4A850" stroke-width="1.5" stroke-linecap="round" stroke-linejoin="round"/>
</svg>
