<svg width="36" height="36" viewBox="0 0 36 36" fill="none" xmlns="http://www.w3.org/2000/svg">
<rect width="36" height="36" rx="18" fill="#D4A850" fill-opacity="0.2"/>
<path d="M23.3232 15.3536C22.6501 15.3536 22.0656 15.1373 21.5696 14.7048C21.0736 14.2717 20.7787 13.7291 20.6848 13.0768H15.2952C15.2099 13.6576 14.964 14.1536 14.5576 14.5648C14.1507 14.9771 13.6573 15.2259 13.0776 15.3112V20.6848C13.7293 20.7792 14.2717 21.0744 14.7048 21.5704C15.1379 22.0664 15.3541 22.6504 15.3536 23.3224C15.3536 24.0691 15.0941 24.7021 14.5752 25.2216C14.0563 25.7405 13.4235 26 12.6768 26C11.9301 26 11.2973 25.7405 10.7784 25.2216C10.2595 24.7027 10 24.0699 10 23.3232C10 22.6501 10.2165 22.0656 10.6496 21.5696C11.0821 21.0736 11.6245 20.7787 12.2768 20.6848V15.3112C11.6245 15.2168 11.0821 14.9229 10.6496 14.4296C10.2171 13.9363 10.0005 13.3523 10 12.6776C10 11.9309 10.2605 11.2979 10.7816 10.7784C11.3032 10.2595 11.9299 10 12.6616 10C13.3363 10 13.9203 10.2165 14.4136 10.6496C14.9069 11.0827 15.2011 11.6248 15.296 12.276H20.6856C20.78 11.6237 21.0752 11.0813 21.5712 10.6488C22.0661 10.2163 22.6499 10 23.3224 10C24.0589 10 24.6893 10.2621 25.2136 10.7864C25.7379 11.3107 26 11.9408 26 12.6768C26 13.4235 25.7379 14.0563 25.2136 14.5752C24.6893 15.0941 24.0592 15.3536 23.3232 15.3536ZM12.6672 25.216C13.1957 25.216 13.6424 25.0304 14.0072 24.6592C14.3715 24.288 14.5536 23.8461 14.5536 23.3336C14.5536 22.8051 14.3715 22.3584 14.0072 21.9936C13.6424 21.6293 13.1957 21.4472 12.6672 21.4472C12.1547 21.4472 11.7128 21.6293 11.3416 21.9936C10.9704 22.3584 10.7848 22.8051 10.7848 23.3336C10.7848 23.8461 10.9704 24.288 11.3416 24.6592C11.7128 25.0304 12.1547 25.216 12.6672 25.216ZM12.6672 14.5704C13.1957 14.5704 13.6424 14.3848 14.0072 14.0136C14.3715 13.6429 14.5536 13.1971 14.5536 12.676C14.5536 12.1549 14.3715 11.7123 14.0072 11.348C13.6429 10.9837 13.1963 10.8011 12.6672 10.8C12.1547 10.8 11.7128 10.9824 11.3416 11.3472C10.9704 11.7115 10.7848 12.1541 10.7848 12.6752C10.7848 13.1963 10.9704 13.6421 11.3416 14.0128C11.7128 14.3835 12.1547 14.5688 12.6672 14.5688M23.3232 26C22.5765 26 21.9437 25.7405 21.4248 25.2216C20.9059 24.7027 20.6464 24.0733 20.6464 23.3336C20.6464 22.5939 20.9059 21.9613 21.4248 21.436C21.9437 20.9107 22.5765 20.6475 23.3232 20.6464C24.0699 20.6453 24.7027 20.9085 25.2216 21.436C25.7405 21.9635 26 22.5963 26 23.3344C26 24.0725 25.7405 24.7016 25.2216 25.2216C24.7027 25.7416 24.0699 26.0011 23.3232 26ZM23.3248 25.216C23.8459 25.216 24.2885 25.0301 24.6528 24.6584C25.0176 24.2872 25.2 23.8453 25.2 23.3328C25.2 22.8043 25.0176 22.3576 24.6528 21.9928C24.2885 21.6285 23.8459 21.4464 23.3248 21.4464C22.8037 21.4464 22.3579 21.6285 21.9872 21.9928C21.616 22.3576 21.4304 22.8043 21.4304 23.3328C21.4304 23.8453 21.616 24.2872 21.9872 24.6584C22.3579 25.0296 22.8037 25.2152 23.3248 25.2152M23.3248 14.5696C23.8459 14.5696 24.2885 14.384 24.6528 14.0128C25.0176 13.6421 25.2 13.1963 25.2 12.6752C25.2 12.1541 25.0176 11.7115 24.6528 11.3472C24.288 10.9829 23.8453 10.8005 23.3248 10.8C22.8043 10.7995 22.3584 10.9819 21.9872 11.3472C21.6165 11.7115 21.4312 12.1541 21.4312 12.6752C21.4312 13.1963 21.6165 13.6421 21.9872 14.0128C22.3579 14.3835 22.8037 14.5696 23.3248 14.5696Z" fill="#D4A850"/>
</svg>
