<svg width="36" height="36" viewBox="0 0 36 36" fill="none" xmlns="http://www.w3.org/2000/svg">
<rect width="36" height="36" rx="18" fill="#D4A850" fill-opacity="0.2"/>
<path d="M10 16.2222C10 12.8702 10 11.1938 11.0418 10.1529C12.0836 9.11197 13.7591 9.11108 17.1111 9.11108H18.8889C22.2409 9.11108 23.9173 9.11108 24.9582 10.1529C25.9991 11.1946 26 12.8702 26 16.2222V19.7778C26 23.1298 26 24.8062 24.9582 25.8471C23.9164 26.888 22.2409 26.8889 18.8889 26.8889H17.1111C13.7591 26.8889 12.0827 26.8889 11.0418 25.8471C10.0009 24.8053 10 23.1298 10 19.7778V16.2222Z" stroke="#D4A850" stroke-width="1.5"/>
<path d="M14.4453 16.2222H21.5564M14.4453 19.7777H18.8898" stroke="#D4A850" stroke-width="1.5" stroke-linecap="round"/>
</svg>
