<svg width="36" height="36" viewBox="0 0 36 36" fill="none" xmlns="http://www.w3.org/2000/svg">
<rect width="36" height="36" rx="18" fill="#D4A850" fill-opacity="0.2"/>
<path d="M15.7225 12.7264C16.736 10.9088 17.2424 10 18 10C18.7576 10 19.264 10.9088 20.2775 12.7264L20.5399 13.1968C20.8279 13.7136 20.9719 13.972 21.1959 14.1424C21.4199 14.3128 21.6999 14.376 22.2599 14.5024L22.7687 14.6176C24.7366 15.0632 25.7198 15.2856 25.9542 16.0384C26.1878 16.7904 25.5174 17.5752 24.1759 19.1441L23.8287 19.5497C23.4479 19.9953 23.2567 20.2185 23.1711 20.4937C23.0855 20.7697 23.1143 21.0673 23.1719 21.6617L23.2247 22.2033C23.4271 24.2969 23.5287 25.3433 22.9159 25.8081C22.3031 26.2729 21.3815 25.8489 19.54 25.0009L19.0624 24.7817C18.5392 24.5401 18.2776 24.4201 18 24.4201C17.7224 24.4201 17.4608 24.5401 16.9376 24.7817L16.4608 25.0009C14.6185 25.8489 13.6969 26.2729 13.0849 25.8089C12.4713 25.3433 12.5729 24.2969 12.7753 22.2033L12.8281 21.6625C12.8857 21.0673 12.9145 20.7697 12.8281 20.4945C12.7433 20.2185 12.5521 19.9953 12.1713 19.5505L11.8241 19.1441C10.4826 17.576 9.81219 16.7912 10.0458 16.0384C10.2794 15.2856 11.2642 15.0624 13.2321 14.6176L13.7409 14.5024C14.3001 14.376 14.5793 14.3128 14.8041 14.1424C15.0289 13.972 15.1721 13.7136 15.4601 13.1968L15.7225 12.7264Z" stroke="#D4A850" stroke-width="1.5"/>
</svg>
