<svg width="36" height="36" viewBox="0 0 36 36" fill="none" xmlns="http://www.w3.org/2000/svg">
<rect width="36" height="36" rx="18" fill="#D4A850" fill-opacity="0.2"/>
<path fill-rule="evenodd" clip-rule="evenodd" d="M12.0372 11.1432C13.0357 10.1621 14.6798 10.3365 15.5159 11.4408L16.5513 12.8061C17.2322 13.7045 17.1715 14.9596 16.3634 15.7534L16.1681 15.9464C16.146 16.0274 16.1437 16.1124 16.1615 16.1945C16.2132 16.5253 16.493 17.2258 17.6646 18.3771C18.8362 19.5285 19.55 19.8041 19.8896 19.856C19.9752 19.873 20.0636 19.8705 20.1481 19.8487L20.4828 19.5195C21.2015 18.8141 22.3042 18.682 23.1935 19.1595L24.7606 20.0028C26.1037 20.7228 26.4425 22.526 25.3431 23.6068L24.1773 24.7516C23.8097 25.1124 23.3158 25.4132 22.7136 25.4692C21.2286 25.6062 17.7688 25.431 14.1318 21.8579C10.7376 18.5223 10.0862 15.6131 10.0033 14.1796C9.96228 13.4548 10.3085 12.8418 10.7499 12.4089L12.0372 11.1432ZM14.5313 12.1697C14.1154 11.6208 13.3409 11.577 12.9044 12.0059L11.6163 13.2707C11.3455 13.5367 11.2159 13.8302 11.2323 14.1107C11.298 15.2499 11.823 17.8744 14.9998 20.996C18.3324 24.27 21.4099 24.3681 22.5995 24.2578C22.8424 24.2359 23.0836 24.1111 23.3092 23.8897L24.4743 22.7441C24.9485 22.2787 24.8443 21.4306 24.1732 21.0706L22.6061 20.2282C22.1729 19.9963 21.6659 20.0725 21.3508 20.3822L20.9775 20.7495L20.5427 20.3182C20.9775 20.7495 20.9767 20.7503 20.9759 20.7503L20.9751 20.7519L20.9726 20.7544L20.9669 20.7592L20.9546 20.7706C20.9199 20.8024 20.8826 20.8311 20.843 20.8565C20.7773 20.8995 20.6904 20.9473 20.5813 20.9871C20.3597 21.069 20.066 21.1127 19.7034 21.0576C18.9921 20.9498 18.0494 20.4706 16.7966 19.2398C15.5446 18.009 15.0556 17.0831 14.9456 16.3809C14.889 16.0226 14.9342 15.7323 15.0178 15.5134C15.0639 15.3902 15.1298 15.2752 15.2131 15.1729L15.2394 15.1445L15.2509 15.1323L15.2558 15.1275L15.2582 15.125L15.2599 15.1234L15.4962 14.8915C15.8473 14.5453 15.8965 13.9721 15.5659 13.535L14.5313 12.1697Z" fill="#D4A850"/>
</svg>
