<svg width="36" height="36" viewBox="0 0 36 36" fill="none" xmlns="http://www.w3.org/2000/svg">
<rect width="36" height="36" rx="18" fill="#D4A850" fill-opacity="0.2"/>
<path d="M11.4364 24C11.027 24 10.6853 23.868 10.4116 23.604C10.1378 23.34 10.0006 23.0103 10 22.6149V13.3851C10 12.9903 10.1372 12.6609 10.4116 12.3969C10.6859 12.1329 11.0273 12.0006 11.4356 12H24.5644C24.9733 12 25.3147 12.1323 25.5884 12.3969C25.8622 12.6614 25.9994 12.9909 26 13.3851V22.6157C26 23.01 25.8628 23.3394 25.5884 23.604C25.3141 23.8686 24.9727 24.0006 24.5644 24H11.4364ZM18 18.0994L10.8889 13.6157V22.6157C10.8889 22.7694 10.9401 22.8957 11.0427 22.9946C11.1452 23.0934 11.2764 23.1429 11.4364 23.1429H24.5644C24.7239 23.1429 24.8548 23.0934 24.9573 22.9946C25.0599 22.8957 25.1111 22.7691 25.1111 22.6149V13.6149L18 18.0994ZM18 17.1429L24.8373 12.8571H11.1627L18 17.1429ZM10.8889 13.6157V12.8571V22.6157C10.8889 22.7694 10.9401 22.8957 11.0427 22.9946C11.1452 23.0934 11.2764 23.1429 11.4364 23.1429H10.8889V13.6157Z" fill="#D4A850"/>
</svg>
