<svg width="36" height="37" viewBox="0 0 36 37" fill="none" xmlns="http://www.w3.org/2000/svg">
<rect y="0.499817" width="36" height="36" rx="18" fill="#D4A850" fill-opacity="0.2"/>
<g clip-path="url(#clip0_1641_13575)">
<path fill-rule="evenodd" clip-rule="evenodd" d="M27.801 16.6203C27.521 16.9203 26.023 18.6193 25.803 18.9183C25.583 19.2183 25.283 19.5583 25.034 19.9183C24.4581 20.6944 23.9049 21.4871 23.375 22.2953C23.3461 22.3315 23.3249 22.3733 23.3127 22.418C23.3005 22.4627 23.2976 22.5095 23.3042 22.5554C23.3108 22.6013 23.3266 22.6453 23.3508 22.6849C23.3751 22.7244 23.4071 22.7586 23.445 22.7853C23.518 22.842 23.6106 22.8676 23.7024 22.8564C23.7942 22.8451 23.8778 22.798 23.935 22.7253C24.585 21.9853 25.284 21.2963 25.933 20.5673C26.373 20.0773 27.931 18.2093 28.351 17.7093C28.771 17.2093 28.461 15.9113 27.801 16.6203Z" fill="#D4A850"/>
<path fill-rule="evenodd" clip-rule="evenodd" d="M29.6992 13.7828C29.6893 13.6971 29.6482 13.618 29.5836 13.5608C29.519 13.5036 29.4355 13.4723 29.3492 13.4728C29.3029 13.4714 29.2567 13.4795 29.2136 13.4966C29.1706 13.5137 29.1314 13.5395 29.0986 13.5722C29.0659 13.605 29.0401 13.6442 29.023 13.6873C29.0059 13.7303 28.9978 13.7765 28.9992 13.8228C28.9992 14.4628 29.0692 17.0398 29.0492 17.3688C29.0292 17.8318 28.9462 18.2888 28.7992 18.7288C28.7234 18.9249 28.6156 19.107 28.4802 19.2678C28.2402 19.5678 27.9502 19.8478 27.7002 20.1078L25.5632 22.4648C24.5632 23.5748 23.7242 24.8228 22.7452 25.9418C22.5152 26.1918 22.2552 26.4118 22.0052 26.6518C22.0611 26.1137 22.0878 25.5729 22.0852 25.0318V24.2628C22.0852 24.0128 22.0152 23.7538 21.9652 23.5138C21.8652 23.0238 21.7162 22.5648 21.5862 22.0848C22.5362 20.9158 23.5342 19.7968 24.4932 18.6378C25.1032 17.9188 25.6732 17.1798 26.2622 16.4498C27.1422 15.3508 28.0002 14.2318 28.9002 13.1428C29.4102 12.5728 29.2102 12.4028 29.1002 12.3228C28.6807 11.9739 28.2124 11.6883 27.7102 11.4748C27.002 11.1704 26.2707 10.923 25.5232 10.7348L20.3172 9.47582C19.5603 9.2902 18.7875 9.17637 18.0092 9.13582C17.4223 9.10288 16.8347 9.18789 16.2812 9.38582C15.9199 9.55182 15.5865 9.76182 15.2812 10.0158C14.8122 10.3558 14.4222 10.7558 14.0132 11.0748C13.4032 11.6248 12.8132 12.2048 12.2642 12.8038C11.4352 13.6928 10.6562 14.6218 9.8662 15.5608C9.2262 16.3108 8.5182 16.9898 7.9282 17.7588C7.66188 18.1055 7.42442 18.4734 7.2182 18.8588C7.20346 18.9077 7.20346 18.9599 7.2182 19.0088C7.0582 19.1402 6.92187 19.2932 6.8092 19.4678C6.55509 19.8577 6.36596 20.2863 6.2492 20.7368C5.91693 21.7082 5.91693 22.7624 6.2492 23.7338C6.60716 24.6697 7.23286 25.4794 8.0482 26.0618C8.7682 26.5618 9.5852 26.9018 10.4462 27.0618C11.6462 27.2508 12.8592 27.3378 14.0732 27.3208C15.1322 27.3208 16.4812 27.4208 17.8492 27.5208C19.2192 27.6208 20.5472 27.7408 21.6062 27.8708C21.6062 27.8708 22.9952 26.7508 23.2652 26.4908C24.3242 25.4918 25.2632 24.3028 26.3322 23.2938C26.6522 22.9938 26.9622 22.6838 27.2522 22.3648C27.6912 21.8948 28.1002 21.3658 28.5302 20.9258C28.8248 20.6108 29.0987 20.2772 29.3502 19.9268C29.5342 19.6528 29.6805 19.3598 29.7892 19.0478C29.9392 18.4978 30.0102 17.9298 29.9992 17.3598C29.9992 16.1498 29.7392 14.8418 29.6992 13.7828ZM8.7672 17.8888C9.3272 17.2888 9.9672 16.7298 10.5362 16.1208C11.3633 15.2463 12.2061 14.3869 13.0642 13.5428C13.6232 12.9928 14.2032 12.4728 14.8222 11.9538C15.1822 11.6438 15.5522 11.2638 15.9612 10.9548C16.1879 10.7648 16.4345 10.6048 16.7012 10.4748C17.0993 10.3398 17.5195 10.2821 17.9392 10.3048C18.6592 10.3275 19.3719 10.4108 20.0772 10.5548L25.3232 11.5548C26.0345 11.7015 26.7305 11.9015 27.4112 12.1548C27.7272 12.2948 28.0305 12.4612 28.3212 12.6538C27.3212 13.6528 26.3712 14.5818 25.4432 15.6008C25.0532 16.0408 24.6632 16.4908 24.2832 16.9498C23.9042 17.4098 23.5342 17.8798 23.1952 18.3588C20.3972 22.2448 22.1952 21.7158 18.9182 21.0158C16.2812 20.4658 13.7032 19.4678 11.0152 19.0578C10.3652 18.9678 9.5872 18.7178 8.8472 18.6578C8.59913 18.6523 8.35114 18.6724 8.1072 18.7178C8.3132 18.4305 8.5332 18.1542 8.7672 17.8888ZM17.9392 26.6408C16.6797 26.5011 15.4174 26.3878 14.1532 26.3008C12.9964 26.2741 11.8437 26.154 10.7062 25.9418C10.0083 25.7988 9.35004 25.5053 8.7772 25.0818C8.14468 24.6353 7.66107 24.0088 7.3892 23.2838C7.14868 22.5606 7.14868 21.779 7.3892 21.0558C7.46653 20.7752 7.5732 20.5055 7.7092 20.2468C7.78385 20.0716 7.92318 19.9319 8.0982 19.8568C8.4282 19.7908 8.7682 19.7908 9.0972 19.8568C9.7372 19.9268 10.3862 20.0868 10.9252 20.1468C13.5932 20.4168 16.1812 21.2768 18.8192 21.7258C19.4792 21.8478 20.1452 21.9312 20.8172 21.9758C20.7772 22.6185 20.7772 23.2612 20.8172 23.9038C20.8619 24.2838 20.9252 24.6602 21.0072 25.0328C21.4272 27.7198 22.1562 27.0908 17.9392 26.6408Z" fill="#D4A850"/>
<path fill-rule="evenodd" clip-rule="evenodd" d="M19.2473 22.8148C18.1415 22.4178 17.014 22.0839 15.8703 21.8148C14.8823 21.5974 13.8749 21.4805 12.8633 21.4658C11.6858 21.4221 10.5067 21.4689 9.33633 21.6058C9.2435 21.6058 9.15448 21.6427 9.08884 21.7083C9.0232 21.774 8.98633 21.863 8.98633 21.9558C8.98633 22.0486 9.0232 22.1377 9.08884 22.2033C9.15448 22.2689 9.2435 22.3058 9.33633 22.3058C10.315 22.3232 11.2907 22.3898 12.2633 22.5058C13.1633 22.5948 14.0723 22.7448 14.9713 22.8548C16.3603 23.0348 17.7293 23.1748 19.0573 23.4348C19.0961 23.4468 19.1369 23.4505 19.1772 23.4457C19.2175 23.441 19.2563 23.4278 19.2912 23.407C19.3261 23.3863 19.3562 23.3585 19.3797 23.3254C19.4031 23.2923 19.4193 23.2546 19.4273 23.2148C19.4418 23.1767 19.4486 23.1362 19.4474 23.0955C19.4462 23.0547 19.4369 23.0147 19.4202 22.9775C19.4035 22.9404 19.3796 22.9069 19.35 22.879C19.3203 22.851 19.2854 22.8293 19.2473 22.8148ZM19.0573 24.9928C18.012 24.6411 16.948 24.3474 15.8703 24.1128C15.4103 24.0228 14.9403 23.9528 14.4713 23.8928C14.0013 23.8328 13.5323 23.8028 13.0533 23.7928C11.9506 23.7486 10.8462 23.7653 9.74533 23.8428C9.69982 23.8428 9.65478 23.8519 9.61286 23.8696C9.57095 23.8873 9.53301 23.9133 9.50131 23.9459C9.4696 23.9786 9.44477 24.0172 9.42828 24.0596C9.4118 24.1021 9.40399 24.1473 9.40533 24.1928C9.40529 24.2839 9.44079 24.3715 9.50428 24.4368C9.56777 24.5022 9.65425 24.5402 9.74533 24.5428C10.3553 24.5428 10.9653 24.6428 11.5943 24.7128C12.2243 24.7828 12.8033 24.8828 13.4223 24.9528L15.2413 25.1828C16.4993 25.3128 17.7283 25.4028 18.9173 25.5928C18.9567 25.6034 18.9978 25.6061 19.0383 25.6007C19.0787 25.5954 19.1177 25.5821 19.153 25.5617C19.1883 25.5413 19.2192 25.5141 19.244 25.4816C19.2688 25.4492 19.2869 25.4123 19.2973 25.3728C19.3127 25.2909 19.2965 25.2061 19.252 25.1357C19.2075 25.0652 19.1379 25.0141 19.0573 24.9928ZM15.3013 14.2418C15.508 14.4605 15.7013 14.6905 15.8813 14.9318C16 15.0865 16.1063 15.2498 16.2003 15.4218C16.2269 15.4858 16.2718 15.5405 16.3295 15.5788C16.3872 15.6172 16.4551 15.6375 16.5243 15.6371C16.5936 15.6368 16.6612 15.6159 16.7186 15.577C16.7759 15.5381 16.8204 15.4831 16.8463 15.4188C16.8818 15.3332 16.8829 15.2372 16.8493 15.1508C16.7668 14.8801 16.6632 14.6163 16.5393 14.3618C16.4193 14.1118 16.2893 13.8818 16.1593 13.6318L16.9493 13.3928C17.1393 13.3328 17.3327 13.2828 17.5293 13.2428C17.7233 13.2042 17.92 13.1808 18.1193 13.1728C18.16 13.1761 18.201 13.1713 18.2399 13.1588C18.2787 13.1462 18.3147 13.1262 18.3459 13.0997C18.377 13.0732 18.4026 13.0409 18.4212 13.0046C18.4398 12.9682 18.451 12.9285 18.4543 12.8878C18.4576 12.8471 18.4528 12.8062 18.4403 12.7673C18.4278 12.7284 18.4077 12.6924 18.3812 12.6613C18.3547 12.6302 18.3224 12.6046 18.2861 12.586C18.2497 12.5674 18.21 12.5561 18.1693 12.5528C17.9415 12.5102 17.7109 12.4835 17.4793 12.4728H16.7893L15.6803 12.5828L15.3503 12.6328H15.1903C14.6813 12.7028 14.6713 13.2828 14.6713 13.2928C14.6943 13.4648 14.7553 13.6288 14.8513 13.7728C15.0113 13.9228 15.1813 14.0918 15.3013 14.2418ZM21.2253 13.8628C21.1966 13.8908 21.1738 13.9242 21.1582 13.9611C21.1426 13.9981 21.1346 14.0377 21.1346 14.0778C21.1346 14.1179 21.1426 14.1576 21.1582 14.1945C21.1738 14.2314 21.1966 14.2649 21.2253 14.2928C21.4453 14.5235 21.6453 14.7698 21.8253 15.0318C21.9553 15.2278 22.0687 15.4342 22.1653 15.6508H22.1053C21.8653 15.6875 21.6287 15.7408 21.3953 15.8108C20.9053 15.9608 20.3963 16.1708 19.9473 16.2808C19.8793 16.2903 19.8155 16.3195 19.764 16.3649C19.7125 16.4104 19.6754 16.4699 19.6575 16.5362C19.6396 16.6026 19.6416 16.6727 19.6633 16.7379C19.6849 16.803 19.7253 16.8604 19.7793 16.9028C19.8519 16.9606 19.9439 16.9882 20.0363 16.9798L22.1853 16.7898C22.43 16.8005 22.673 16.7838 22.9143 16.7398C23.1276 16.6959 23.3207 16.5835 23.4643 16.4198C23.5239 16.3447 23.5664 16.2574 23.5889 16.1642C23.6114 16.0709 23.6132 15.9739 23.5943 15.8798C23.5117 15.6669 23.4079 15.4629 23.2843 15.2708C23.1053 15.0268 22.9045 14.7995 22.6843 14.5918C22.3756 14.3022 22.0412 14.0411 21.6853 13.8118C21.6529 13.7826 21.6146 13.7605 21.5731 13.747C21.5315 13.7336 21.4876 13.729 21.4441 13.7338C21.4007 13.7385 21.3587 13.7523 21.321 13.7744C21.2833 13.7965 21.2507 13.8273 21.2253 13.8628ZM16.5193 16.6198C16.4795 16.6614 16.4503 16.712 16.434 16.7672C16.4178 16.8225 16.4151 16.8808 16.426 16.9373C16.437 16.9938 16.4614 17.0469 16.4971 17.092C16.5328 17.1372 16.5788 17.1731 16.6313 17.1968C16.6947 17.2238 16.7648 17.2309 16.8323 17.2171C16.8998 17.2034 16.9615 17.1694 17.0093 17.1198L19.0073 15.6808C19.3473 15.3708 19.6973 15.0708 20.0073 14.7408C20.4773 14.2518 20.8863 13.7428 21.3653 13.2128C21.4124 13.1971 21.455 13.1703 21.4896 13.1347C21.5242 13.099 21.5497 13.0556 21.564 13.0081C21.5783 12.9606 21.581 12.9103 21.5718 12.8615C21.5627 12.8127 21.5419 12.7668 21.5113 12.7277C21.4807 12.6886 21.4412 12.6574 21.396 12.6368C21.3508 12.6162 21.3014 12.6067 21.2518 12.6092C21.2022 12.6116 21.1539 12.626 21.1111 12.651C21.0682 12.676 21.0319 12.7109 21.0053 12.7528C20.4113 13.1108 19.8387 13.5008 19.2873 13.9228C18.9273 14.2028 18.6073 14.5218 18.2883 14.8118L16.5193 16.6198Z" fill="#D4A850"/>
</g>
<defs>
<clipPath id="clip0_1641_13575">
<rect width="24" height="24" fill="white" transform="translate(6 6.49982)"/>
</clipPath>
</defs>
</svg>
