<svg width="36" height="37" viewBox="0 0 36 37" fill="none" xmlns="http://www.w3.org/2000/svg">
<rect y="0.499817" width="36" height="36" rx="18" fill="#D4A850" fill-opacity="0.2"/>
<path d="M24.75 17.9373C24.75 18.1589 24.7064 18.3784 24.6215 18.5831C24.5367 18.7878 24.4124 18.9739 24.2557 19.1306C24.099 19.2873 23.913 19.4116 23.7083 19.4964C23.5035 19.5812 23.2841 19.6248 23.0625 19.6248C22.8409 19.6248 22.6215 19.5812 22.4167 19.4964C22.212 19.4116 22.026 19.2873 21.8693 19.1306C21.7126 18.9739 21.5883 18.7878 21.5035 18.5831C21.4186 18.3784 21.375 18.1589 21.375 17.9373C21.375 17.4898 21.5528 17.0605 21.8693 16.7441C22.1857 16.4276 22.6149 16.2498 23.0625 16.2498C23.5101 16.2498 23.9393 16.4276 24.2557 16.7441C24.5722 17.0605 24.75 17.4898 24.75 17.9373ZM11.8125 16.2498C11.6633 16.2498 11.5202 16.3091 11.4148 16.4146C11.3093 16.5201 11.25 16.6631 11.25 16.8123C11.25 16.9615 11.3093 17.1046 11.4148 17.2101C11.5202 17.3156 11.6633 17.3748 11.8125 17.3748H16.3125C16.4617 17.3748 16.6048 17.3156 16.7102 17.2101C16.8157 17.1046 16.875 16.9615 16.875 16.8123C16.875 16.6631 16.8157 16.5201 16.7102 16.4146C16.6048 16.3091 16.4617 16.2498 16.3125 16.2498H11.8125ZM11.8125 18.4998C11.6633 18.4998 11.5202 18.5591 11.4148 18.6646C11.3093 18.7701 11.25 18.9131 11.25 19.0623C11.25 19.2115 11.3093 19.3546 11.4148 19.4601C11.5202 19.5656 11.6633 19.6248 11.8125 19.6248H16.3125C16.4617 19.6248 16.6048 19.5656 16.7102 19.4601C16.8157 19.3546 16.875 19.2115 16.875 19.0623C16.875 18.9131 16.8157 18.7701 16.7102 18.6646C16.6048 18.5591 16.4617 18.4998 16.3125 18.4998H11.8125Z" fill="#D4A850"/>
<path d="M9 16.2498C9 15.6531 9.23705 15.0808 9.65901 14.6588C10.081 14.2369 10.6533 13.9998 11.25 13.9998H24.75C25.3467 13.9998 25.919 14.2369 26.341 14.6588C26.7629 15.0808 27 15.6531 27 16.2498V19.6248C27 20.2216 26.7629 20.7938 26.341 21.2158C25.919 21.6378 25.3467 21.8748 24.75 21.8748C24.75 22.1732 24.6315 22.4593 24.4205 22.6703C24.2095 22.8813 23.9234 22.9998 23.625 22.9998H22.5C22.2016 22.9998 21.9155 22.8813 21.7045 22.6703C21.4935 22.4593 21.375 22.1732 21.375 21.8748H14.625C14.625 22.1732 14.5065 22.4593 14.2955 22.6703C14.0845 22.8813 13.7984 22.9998 13.5 22.9998H12.375C12.0766 22.9998 11.7905 22.8813 11.5795 22.6703C11.3685 22.4593 11.25 22.1732 11.25 21.8748C10.6533 21.8748 10.081 21.6378 9.65901 21.2158C9.23705 20.7938 9 20.2216 9 19.6248V16.2498ZM11.25 15.1248C10.9516 15.1248 10.6655 15.2433 10.4545 15.4543C10.2435 15.6653 10.125 15.9514 10.125 16.2498V19.6248C10.125 19.9232 10.2435 20.2093 10.4545 20.4203C10.6655 20.6313 10.9516 20.7498 11.25 20.7498H24.75C25.0484 20.7498 25.3345 20.6313 25.5455 20.4203C25.7565 20.2093 25.875 19.9232 25.875 19.6248V16.2498C25.875 15.9514 25.7565 15.6653 25.5455 15.4543C25.3345 15.2433 25.0484 15.1248 24.75 15.1248H11.25Z" fill="#D4A850"/>
</svg>
