<svg width="36" height="37" viewBox="0 0 36 37" fill="none" xmlns="http://www.w3.org/2000/svg">
<rect y="0.499817" width="36" height="36" rx="18" fill="#D4A850" fill-opacity="0.2"/>
<path d="M13 14.9794L14.635 13.3654L13 11.7494L11.384 13.3654L13 14.9794ZM10.616 20.2694C10.1553 20.2694 9.771 20.115 9.463 19.8064C9.155 19.4977 9.00067 19.1134 9 18.6534V10.8834C9 10.4234 9.15433 10.0394 9.463 9.73137C9.77167 9.42337 10.1557 9.26904 10.615 9.26837H25.385C25.845 9.26837 26.229 9.4227 26.537 9.73137C26.845 10.04 26.9993 10.424 27 10.8834V18.6534C27 19.1134 26.8457 19.4977 26.537 19.8064C26.2283 20.115 25.844 20.269 25.384 20.2684H22.314C22.3447 20.1017 22.365 19.935 22.375 19.7684C22.385 19.6017 22.3863 19.435 22.379 19.2684H25.384C25.538 19.2684 25.6793 19.2044 25.808 19.0764C25.9367 18.9484 26.0007 18.8074 26 18.6534V10.8834C26 10.73 25.936 10.589 25.808 10.4604C25.68 10.3317 25.5387 10.2677 25.384 10.2684H10.616C10.462 10.2684 10.3207 10.3324 10.192 10.4604C10.0633 10.5884 9.99933 10.7297 10 10.8844V18.6534C10 18.8067 10.064 18.9477 10.192 19.0764C10.32 19.205 10.461 19.269 10.615 19.2684H13.621C13.613 19.435 13.6143 19.6017 13.625 19.7684C13.6357 19.935 13.6563 20.1017 13.687 20.2684L10.616 20.2694ZM22.498 13.7694C22.7747 13.7694 23.011 13.672 23.207 13.4774C23.403 13.2827 23.5007 13.0474 23.5 12.7714C23.4993 12.4954 23.4023 12.2587 23.209 12.0614C23.0157 11.864 22.78 11.7664 22.502 11.7684C22.224 11.7704 21.9877 11.8674 21.793 12.0594C21.5983 12.2514 21.5007 12.487 21.5 12.7664C21.4993 13.0457 21.5963 13.282 21.791 13.4754C21.9857 13.6687 22.2213 13.7674 22.498 13.7694ZM12 27.7304V26.3224C12 25.9317 12.108 25.5664 12.324 25.2264C12.54 24.8864 12.8313 24.6364 13.198 24.4764C13.9633 24.1317 14.746 23.8697 15.546 23.6904C16.346 23.511 17.164 23.4217 18 23.4224C18.836 23.423 19.654 23.5124 20.454 23.6904C21.254 23.8684 22.0367 24.1304 22.802 24.4764C23.1687 24.6364 23.46 24.8847 23.676 25.2214C23.892 25.5587 24 25.9237 24 26.3164V27.7304H12ZM13 26.7304H23V26.3224C23 26.1224 22.9417 25.939 22.825 25.7724C22.7083 25.6057 22.5583 25.4807 22.375 25.3974C21.675 25.0807 20.9583 24.839 20.225 24.6724C19.4917 24.5057 18.75 24.4224 18 24.4224C17.25 24.4224 16.5083 24.5057 15.775 24.6724C15.0417 24.839 14.325 25.0807 13.625 25.3974C13.4417 25.4807 13.2917 25.6057 13.175 25.7724C13.0583 25.939 13 26.1224 13 26.3224V26.7304ZM18 22.0374C17.3027 22.0374 16.7117 21.795 16.227 21.3104C15.7423 20.8264 15.5 20.2354 15.5 19.5374C15.5 18.8394 15.7423 18.2484 16.227 17.7644C16.7117 17.2804 17.3027 17.038 18 17.0374C18.6973 17.0367 19.2883 17.279 19.773 17.7644C20.2577 18.2497 20.5 18.8407 20.5 19.5374C20.5 20.234 20.2577 20.825 19.773 21.3104C19.2883 21.7957 18.6973 22.038 18 22.0374ZM18 21.0374C18.4167 21.0374 18.771 20.8917 19.063 20.6004C19.355 20.309 19.5007 19.9547 19.5 19.5374C19.4993 19.12 19.3537 18.766 19.063 18.4754C18.7723 18.1847 18.418 18.0387 18 18.0374C17.582 18.036 17.228 18.182 16.938 18.4754C16.648 18.7687 16.502 19.1227 16.5 19.5374C16.498 19.952 16.644 20.3064 16.938 20.6004C17.232 20.8944 17.586 21.04 18 21.0374Z" fill="#D4A850"/>
</svg>
