<svg width="36" height="37" viewBox="0 0 36 37" fill="none" xmlns="http://www.w3.org/2000/svg">
<rect y="0.499817" width="36" height="36" rx="18" fill="#D4A850" fill-opacity="0.2"/>
<path d="M21 11.4998V18.4998H15V11.4998H21ZM21 9.49982H15C14.4696 9.49982 13.9609 9.71053 13.5858 10.0856C13.2107 10.4607 13 10.9694 13 11.4998V20.4998H23V11.4998C23 10.9694 22.7893 10.4607 22.4142 10.0856C22.0391 9.71053 21.5304 9.49982 21 9.49982ZM28 16.4998H25V19.4998H28V16.4998ZM11 16.4998H8V19.4998H11V16.4998ZM26 21.4998H10V27.4998H12V23.4998H24V27.4998H26V21.4998Z" fill="#D4A850"/>
</svg>
