<svg width="36" height="37" viewBox="0 0 36 37" fill="none" xmlns="http://www.w3.org/2000/svg">
<rect y="0.499817" width="36" height="36" rx="18" fill="#D4A850" fill-opacity="0.2"/>
<path d="M20.4997 11.9998C18.2847 11.9998 16.4997 13.7848 16.4997 15.9998C16.4997 16.1173 16.5182 16.2763 16.5312 16.4218L12.2497 20.7028C12.0158 20.9352 11.8302 21.2115 11.7036 21.5159C11.5769 21.8202 11.5117 22.1466 11.5117 22.4763C11.5117 22.806 11.5769 23.1324 11.7036 23.4368C11.8302 23.7411 12.0158 24.0175 12.2497 24.2498C12.4821 24.4837 12.7584 24.6693 13.0627 24.7959C13.3671 24.9226 13.6935 24.9878 14.0232 24.9878C14.3529 24.9878 14.6793 24.9226 14.9837 24.7959C15.288 24.6693 15.5643 24.4837 15.7967 24.2498L20.0777 19.9683C20.2227 19.9813 20.3827 19.9998 20.4997 19.9998C22.7147 19.9998 24.4997 18.2148 24.4997 15.9998C24.5023 15.3553 24.3409 14.7208 24.0307 14.1558L23.7182 13.5778L23.2497 14.0468L21.0932 16.1868L20.3122 15.4058L22.4522 13.2498L22.9222 12.7808L22.3437 12.4683C21.7787 12.1583 21.1442 11.9971 20.4997 11.9998ZM20.4997 12.9998C20.7427 12.9998 20.9237 13.1048 21.1397 13.1563L19.2497 15.0463L18.8897 15.4063L19.2497 15.7498L20.7497 17.2498L21.0937 17.6098L21.4527 17.2498L23.3437 15.3598C23.3952 15.5758 23.4997 15.7568 23.4997 15.9998C23.4997 17.6848 22.1847 18.9998 20.4997 18.9998C20.2997 18.9998 20.1397 18.9998 20.0147 18.9683L19.7497 18.8903L19.5467 19.0938L15.0932 23.5473C14.4782 24.1623 13.5682 24.1623 12.9532 23.5473L12.9372 23.5313C12.3372 22.9163 12.3422 22.0163 12.9522 21.4063L17.4057 16.9533L17.6092 16.7503L17.5302 16.4853C17.5002 16.3603 17.4992 16.2003 17.4992 16.0003C17.4992 14.3153 18.8142 13.0003 20.4992 13.0003L20.4997 12.9998Z" fill="#D4A850"/>
</svg>
