<svg width="58" height="59" viewBox="0 0 58 59" fill="none" xmlns="http://www.w3.org/2000/svg">
<path fill-rule="evenodd" clip-rule="evenodd" d="M0 0.499817V45.6108H36.0678V42.3886H3.22221V3.72203H46.722V7.13757H49.9443V0.499817H0ZM49.9443 16.6109C49.9443 17.4655 49.6048 18.285 49.0005 18.8893C48.3962 19.4936 47.5766 19.8331 46.722 19.8331C45.8675 19.8331 45.0479 19.4936 44.4436 18.8893C43.8393 18.285 43.4998 17.4655 43.4998 16.6109C43.4998 15.7563 43.8393 14.9367 44.4436 14.3324C45.0479 13.7281 45.8675 13.3887 46.722 13.3887C47.5766 13.3887 48.3962 13.7281 49.0005 14.3324C49.6048 14.9367 49.9443 15.7563 49.9443 16.6109ZM53.1665 16.6109C53.1665 18.32 52.4875 19.9592 51.2789 21.1678C50.0704 22.3763 48.4312 23.0553 46.722 23.0553C45.0129 23.0553 43.3737 22.3763 42.1652 21.1678C40.9566 19.9592 40.2776 18.32 40.2776 16.6109C40.2776 14.9017 40.9566 13.2625 42.1652 12.054C43.3737 10.8454 45.0129 10.1664 46.722 10.1664C48.4312 10.1664 50.0704 10.8454 51.2789 12.054C52.4875 13.2625 53.1665 14.9017 53.1665 16.6109Z" fill="url(#paint0_linear_1641_13546)"/>
<path fill-rule="evenodd" clip-rule="evenodd" d="M38.8169 26.0037C39.7155 25.1459 40.9097 24.6671 42.1519 24.6664H48.7284C51.0871 24.6664 53.283 25.4688 54.9747 27.067C56.6019 28.604 57.4494 30.5744 57.7958 32.4416C58.3403 35.3771 57.7764 38.5848 56.3893 41.4284V54.4719C56.3893 55.4826 56.0093 56.4565 55.3247 57.2001C54.6401 57.9437 53.701 58.4027 52.6937 58.4861C51.6864 58.5695 50.6846 58.271 49.8871 57.6501C49.0895 57.0292 48.5546 56.1311 48.3885 55.1341L47.5282 49.9721L46.6678 55.1341C46.5017 56.1311 45.9668 57.0292 45.1693 57.6501C44.3718 58.271 43.3699 58.5695 42.3626 58.4861C41.3553 58.4027 40.4162 57.9437 39.7316 57.2001C39.047 56.4565 38.6671 55.4826 38.6671 54.4719V39.3162C37.9324 39.7405 37.0989 39.9639 36.2504 39.9639H28.0306C26.7487 39.9639 25.5193 39.4547 24.6129 38.5482C23.7065 37.6418 23.1973 36.4124 23.1973 35.1306C23.1973 33.8487 23.7065 32.6193 24.6129 31.7129C25.5193 30.8065 26.7487 30.2973 28.0306 30.2973H34.3139L38.8169 26.0037ZM41.8893 44.765V54.4719C41.8899 54.6737 41.9661 54.8679 42.103 55.0162C42.2399 55.1644 42.4275 55.2559 42.6286 55.2725C42.8297 55.2891 43.0297 55.2297 43.189 55.1059C43.3484 54.9821 43.4555 54.803 43.4891 54.604L45.1695 44.5249C45.2321 44.1487 45.426 43.8069 45.7169 43.5603C46.0078 43.3137 46.3767 43.1782 46.7581 43.178H48.2983C48.6796 43.1782 49.0486 43.3137 49.3395 43.5603C49.6303 43.8069 49.8243 44.1487 49.8868 44.5249L51.5672 54.604C51.6009 54.803 51.708 54.9821 51.8673 55.1059C52.0267 55.2297 52.2267 55.2891 52.4278 55.2725C52.6289 55.2559 52.8164 55.1644 52.9533 55.0162C53.0902 54.8679 53.1665 54.6737 53.167 54.4719V41.0466C53.167 40.7886 53.2289 40.5345 53.3475 40.3054C54.5913 37.9033 55.044 35.2723 54.6283 33.0297C54.3754 31.6667 53.7841 30.3746 52.7627 29.4095C51.7203 28.4252 50.3379 27.8887 48.7284 27.8887H42.1535C41.7395 27.8887 41.3399 28.0482 41.0403 28.3333L36.0716 33.0732C35.7722 33.3593 35.3741 33.5191 34.9599 33.5195H28.0306C27.6033 33.5195 27.1935 33.6892 26.8914 33.9913C26.5892 34.2935 26.4195 34.7033 26.4195 35.1306C26.4195 35.5579 26.5892 35.9677 26.8914 36.2698C27.1935 36.5719 27.6033 36.7417 28.0306 36.7417H36.2504C36.6646 36.7413 37.0627 36.5815 37.3621 36.2954L39.1665 34.5747C39.3948 34.3571 39.682 34.2113 39.9924 34.1553C40.3027 34.0994 40.6227 34.1357 40.9126 34.2599C41.2025 34.3841 41.4496 34.5907 41.6232 34.854C41.7969 35.1173 41.8894 35.4258 41.8893 35.7412V44.765Z" fill="url(#paint1_linear_1641_13546)"/>
<defs>
<linearGradient id="paint0_linear_1641_13546" x1="0" y1="23.0553" x2="53.1665" y2="23.0553" gradientUnits="userSpaceOnUse">
<stop stop-color="#D4A850"/>
<stop offset="1" stop-color="#C08000"/>
</linearGradient>
<linearGradient id="paint1_linear_1641_13546" x1="23.1973" y1="41.5831" x2="58.0008" y2="41.5831" gradientUnits="userSpaceOnUse">
<stop stop-color="#D4A850"/>
<stop offset="1" stop-color="#C08000"/>
</linearGradient>
</defs>
</svg>
