<svg width="36" height="37" viewBox="0 0 36 37" fill="none" xmlns="http://www.w3.org/2000/svg">
<rect y="0.5" width="36" height="36" rx="18" fill="#D4A850" fill-opacity="0.2"/>
<path d="M16.896 21.236C17.1715 21.5023 17.5253 21.6234 17.9573 21.5994C18.3893 21.576 18.7045 21.4263 18.9031 21.1503L23.5724 14.8734L17.0293 19.3443C16.7318 19.5351 16.5662 19.8317 16.5324 20.234C16.4986 20.6363 16.6198 20.9697 16.896 21.236ZM17.9999 12.5C18.8171 12.5 19.5608 12.596 20.231 12.788C20.9019 12.9794 21.5703 13.2723 22.2364 13.6666L21.4186 14.2006C20.8953 13.9251 20.3537 13.7157 19.7937 13.5723C19.2337 13.4289 18.6358 13.3571 17.9999 13.3571C16.0296 13.3571 14.3517 14.0251 12.9662 15.3611C11.5807 16.6971 10.8883 18.3149 10.8889 20.2143C10.8889 20.8143 10.9742 21.4071 11.1449 21.9929C11.3155 22.5786 11.5561 23.1286 11.8667 23.6429H24.1332C24.474 23.1 24.7223 22.5357 24.8781 21.95C25.034 21.3643 25.1116 20.7571 25.111 20.1286C25.111 19.6143 25.0423 19.0731 24.9048 18.5051C24.7673 17.9371 24.5498 17.408 24.2523 16.9177L24.807 16.1291C25.2396 16.8446 25.5457 17.5177 25.7252 18.1486C25.9048 18.7794 25.9963 19.436 25.9999 20.1183C26.0034 20.8554 25.9184 21.5434 25.7448 22.1823C25.5717 22.8211 25.3021 23.4651 24.9359 24.1143C24.8648 24.2286 24.7566 24.3214 24.6115 24.3929C24.4663 24.4643 24.3069 24.5 24.1332 24.5H11.8667C11.7037 24.5 11.5526 24.4617 11.4133 24.3851C11.2747 24.308 11.1579 24.1957 11.0631 24.0483C10.7692 23.5483 10.5185 22.9843 10.3111 22.3563C10.1037 21.7283 10 21.0143 10 20.2143C10 19.1606 10.2074 18.166 10.6222 17.2306C11.0364 16.2951 11.6021 15.476 12.3191 14.7731C13.0361 14.0703 13.8841 13.5154 14.8631 13.1086C15.842 12.7017 16.8877 12.4989 17.9999 12.5Z" fill="#D4A850"/>
</svg>
