<svg width="36" height="37" viewBox="0 0 36 37" fill="none" xmlns="http://www.w3.org/2000/svg">
<rect y="0.5" width="36" height="36" rx="18" fill="#D4A850" fill-opacity="0.2"/>
<g clip-path="url(#clip0_1641_13403)">
<path d="M23.6484 12.7656C23.7214 12.8073 23.7812 12.8672 23.8281 12.9453C23.875 13.0234 23.8984 13.1068 23.8984 13.1953C23.8984 13.237 23.8932 13.276 23.8828 13.3125C23.8724 13.349 23.8594 13.3854 23.8438 13.4219L18.3203 24.4766C18.2734 24.5755 18.2005 24.6484 18.1016 24.6953L16.75 25.375C16.5833 25.4583 16.4036 25.5 16.2109 25.5H16.1406C16.1198 25.5 16.0938 25.4974 16.0625 25.4922L15.6953 26.2266C15.6536 26.3099 15.5938 26.375 15.5156 26.4219C15.4375 26.4688 15.349 26.4948 15.25 26.5C15.1146 26.5 14.9974 26.4505 14.8984 26.3516C14.7995 26.2526 14.75 26.1354 14.75 26C14.75 25.9375 14.7682 25.8594 14.8047 25.7656C14.8411 25.6719 14.8828 25.5755 14.9297 25.4766C14.9766 25.3776 15.0286 25.2812 15.0859 25.1875C15.1432 25.0938 15.1823 25.0208 15.2031 24.9688C15.0677 24.7604 15 24.5339 15 24.2891V23C15 22.9167 15.0182 22.8411 15.0547 22.7734L19.5547 13.7734L19.0469 13.5234L17.1953 17.2266C17.1536 17.3099 17.0938 17.375 17.0156 17.4219C16.9375 17.4688 16.849 17.4948 16.75 17.5C16.6146 17.5 16.4974 17.4505 16.3984 17.3516C16.2995 17.2526 16.25 17.1354 16.25 17C16.25 16.9323 16.2682 16.8568 16.3047 16.7734L18.1719 13.0391C18.2552 12.8724 18.3672 12.7422 18.5078 12.6484C18.6484 12.5547 18.8125 12.5052 19 12.5C19.1823 12.5 19.3542 12.5443 19.5156 12.6328C19.6771 12.7214 19.8385 12.8047 20 12.8828L20.5547 11.7734C20.5964 11.6849 20.6562 11.6172 20.7344 11.5703C20.8125 11.5234 20.901 11.5 21 11.5C21.0677 11.5 21.125 11.5104 21.1719 11.5312C21.2344 11.4062 21.2943 11.2839 21.3516 11.1641C21.4089 11.0443 21.4766 10.9323 21.5547 10.8281C21.6328 10.724 21.7266 10.6458 21.8359 10.5938C21.9453 10.5417 22.0833 10.5104 22.25 10.5C22.4167 10.5 22.5755 10.5391 22.7266 10.6172L23.4609 10.9844C23.6276 11.0677 23.7578 11.1771 23.8516 11.3125C23.9453 11.4479 23.9948 11.6146 24 11.8125C24 11.9896 23.9609 12.1536 23.8828 12.3047C23.8047 12.4557 23.7266 12.6094 23.6484 12.7656ZM22.0703 11.9766L22.75 12.3125L22.9766 11.8594L22.2969 11.5234L22.0703 11.9766ZM22.7266 13.4219L21.2266 12.6719L16 23.1172V24.2891C16 24.3464 16.0208 24.3958 16.0625 24.4375C16.1042 24.4792 16.1536 24.5 16.2109 24.5C16.2318 24.5 16.2734 24.487 16.3359 24.4609C16.3984 24.4349 16.474 24.401 16.5625 24.3594C16.651 24.3177 16.7422 24.2734 16.8359 24.2266C16.9297 24.1797 17.0234 24.1302 17.1172 24.0781C17.2109 24.026 17.2891 23.9844 17.3516 23.9531C17.4141 23.9219 17.4635 23.8958 17.5 23.875L22.7266 13.4219ZM24 16.5C24.276 16.5 24.5339 16.5521 24.7734 16.6562C25.013 16.7604 25.2266 16.9036 25.4141 17.0859C25.6016 17.2682 25.7448 17.4792 25.8438 17.7188C25.9427 17.9583 25.9948 18.2188 26 18.5C26 18.776 25.9479 19.0339 25.8438 19.2734C25.7396 19.513 25.5964 19.7266 25.4141 19.9141C25.2318 20.1016 25.0208 20.2448 24.7812 20.3438C24.5417 20.4427 24.2812 20.4948 24 20.5H21.75L22.25 19.5H24C24.1406 19.5 24.2708 19.474 24.3906 19.4219C24.5104 19.3698 24.6146 19.2995 24.7031 19.2109C24.7917 19.1224 24.8646 19.0156 24.9219 18.8906C24.9792 18.7656 25.0052 18.6354 25 18.5C25 18.3594 24.974 18.2292 24.9219 18.1094C24.8698 17.9896 24.7995 17.8854 24.7109 17.7969C24.6224 17.7083 24.5156 17.6354 24.3906 17.5781C24.2656 17.5208 24.1354 17.4948 24 17.5C23.8646 17.5 23.7474 17.4505 23.6484 17.3516C23.5495 17.2526 23.5 17.1354 23.5 17C23.5 16.8646 23.5495 16.7474 23.6484 16.6484C23.7474 16.5495 23.8646 16.5 24 16.5ZM11 23C11 23.3438 11.0651 23.6667 11.1953 23.9688C11.3255 24.2708 11.5026 24.5365 11.7266 24.7656C11.9505 24.9948 12.2161 25.1745 12.5234 25.3047C12.8307 25.4349 13.1562 25.5 13.5 25.5H13.8438C13.8177 25.5781 13.7969 25.6589 13.7812 25.7422C13.7656 25.8255 13.7552 25.9115 13.75 26C13.75 26.0885 13.7578 26.1745 13.7734 26.2578C13.7891 26.3411 13.8125 26.4219 13.8438 26.5H13.5C13.0156 26.5 12.5625 26.4089 12.1406 26.2266C11.7188 26.0443 11.349 25.7943 11.0312 25.4766C10.7135 25.1589 10.4635 24.7891 10.2812 24.3672C10.099 23.9453 10.0052 23.4896 10 23C10 22.5156 10.0911 22.0625 10.2734 21.6406C10.4557 21.2188 10.7057 20.849 11.0234 20.5312C11.3411 20.2135 11.7109 19.9635 12.1328 19.7812C12.5547 19.599 13.0104 19.5052 13.5 19.5H15.25L14.75 20.5H13.5C13.1562 20.5 12.8333 20.5651 12.5312 20.6953C12.2292 20.8255 11.9635 21.0052 11.7344 21.2344C11.5052 21.4635 11.3255 21.7292 11.1953 22.0312C11.0651 22.3333 11 22.6562 11 23Z" fill="#D4A850"/>
</g>
<defs>
<clipPath id="clip0_1641_13403">
<rect width="16" height="16" fill="white" transform="translate(10 10.5)"/>
</clipPath>
</defs>
</svg>
