<svg width="36" height="37" viewBox="0 0 36 37" fill="none" xmlns="http://www.w3.org/2000/svg">
<rect y="0.5" width="36" height="36" rx="18" fill="#D4A850" fill-opacity="0.2"/>
<path d="M22.8006 13.6997C22.763 12.4572 22.6246 11.7156 22.111 11.2027C21.407 10.4995 20.2741 10.4995 18.0084 10.4995H14.8058C12.5401 10.4995 11.4073 10.4995 10.704 11.2027C10 11.9052 10 13.0372 10 15.2998V21.7001C10 23.9626 10 25.0946 10.704 25.7971C11.4081 26.4995 12.5401 26.5003 14.8058 26.5003H18.0092C20.2741 26.5003 21.407 26.5003 22.111 25.7971C22.6246 25.2842 22.763 24.5434 22.8006 23.3001" stroke="#D4A850" stroke-width="1.5" stroke-linecap="round" stroke-linejoin="round"/>
<path d="M24.5946 18.2935L25.5362 17.3519C25.7523 17.1359 25.8611 17.0271 25.9187 16.9103C25.9724 16.8007 26.0003 16.6803 26.0003 16.5582C26.0003 16.4362 25.9724 16.3158 25.9187 16.2062C25.8611 16.0894 25.7523 15.9806 25.5362 15.7646C25.3202 15.5486 25.2114 15.4398 25.0946 15.3822C24.985 15.3285 24.8646 15.3006 24.7426 15.3006C24.6206 15.3006 24.5002 15.3285 24.3906 15.3822C24.2738 15.4398 24.1658 15.5486 23.949 15.7646L23.0073 16.7063M24.5946 18.2935L20.3816 22.5065L18.0007 23.3002L18.7943 20.9193L23.0073 16.7063M24.5946 18.2935L23.0073 16.7063M12.4004 24.1002H13.2004L14.2005 22.1001L15.2005 24.1002H16.0006M13.2004 13.6997H19.6007M13.2004 16.8999H18.0007" stroke="#D4A850" stroke-width="1.5" stroke-linecap="round" stroke-linejoin="round"/>
</svg>
