<svg width="36" height="37" viewBox="0 0 36 37" fill="none" xmlns="http://www.w3.org/2000/svg">
<rect y="0.5" width="36" height="36" rx="18" fill="#D4A850" fill-opacity="0.2"/>
<g clip-path="url(#clip0_1641_13370)">
<path d="M12.5 21H12C11.7034 21 11.4136 20.9118 11.167 20.7471C10.9204 20.5823 10.7278 20.3482 10.6143 20.0742C10.5007 19.8001 10.4714 19.498 10.5293 19.207C10.5872 18.9162 10.7298 18.6491 10.9395 18.4395C11.1491 18.2298 11.4162 18.0872 11.707 18.0293C11.998 17.9714 12.3001 18.0007 12.5742 18.1143C12.8482 18.2278 13.0823 18.4204 13.2471 18.667C13.4118 18.9136 13.5 19.2034 13.5 19.5V22H22.5V19.5C22.5 19.2034 22.5882 18.9136 22.7529 18.667C22.9177 18.4204 23.1518 18.2278 23.4258 18.1143C23.6999 18.0007 24.002 17.9714 24.293 18.0293C24.5838 18.0872 24.8509 18.2298 25.0605 18.4395C25.2702 18.6491 25.4128 18.9162 25.4707 19.207C25.5286 19.498 25.4993 19.8001 25.3857 20.0742C25.2722 20.3482 25.0796 20.5823 24.833 20.7471C24.5864 20.9118 24.2966 21 24 21H23.5V26H12.5V21Z" stroke="#D4A850"/>
<path d="M18 10.9893C19.3808 10.9894 20.7111 11.5087 21.7266 12.4443C22.6186 13.2664 23.2099 14.3571 23.417 15.543C22.5676 15.668 21.7754 16.0638 21.1631 16.6797C20.4179 17.4292 20 18.4431 20 19.5H16C16 18.4431 15.5811 17.4292 14.8359 16.6797C14.2234 16.0636 13.4308 15.6678 12.5811 15.543C12.7881 14.357 13.3804 13.2664 14.2725 12.4443C15.288 11.5086 16.6191 10.9893 18 10.9893Z" stroke="#D4A850"/>
</g>
<defs>
<clipPath id="clip0_1641_13370">
<rect width="16" height="16" fill="white" transform="translate(10 10.5)"/>
</clipPath>
</defs>
</svg>
