<svg width="36" height="37" viewBox="0 0 36 37" fill="none" xmlns="http://www.w3.org/2000/svg">
<rect y="0.5" width="36" height="36" rx="18" fill="#D4A850" fill-opacity="0.2"/>
<path d="M22.8 14.3C23.6487 14.3 24.4626 14.6319 25.0627 15.2226C25.6629 15.8134 26 16.6146 26 17.45V25.85C26 26.6854 25.6629 27.4866 25.0627 28.0774C24.4626 28.6681 23.6487 29 22.8 29H13.2C12.3513 29 11.5374 28.6681 10.9373 28.0774C10.3371 27.4866 10 26.6854 10 25.85V17.45C10 16.6146 10.3371 15.8134 10.9373 15.2226C11.5374 14.6319 12.3513 14.3 13.2 14.3V12.725C13.2 10.1 15.3333 8 18 8C20.6667 8 22.8 10.1 22.8 12.725V14.3ZM13.2 15.35C12.6342 15.35 12.0916 15.5712 11.6915 15.9651C11.2914 16.3589 11.0667 16.893 11.0667 17.45V25.85C11.0667 26.407 11.2914 26.9411 11.6915 27.3349C12.0916 27.7287 12.6342 27.95 13.2 27.95H22.8C23.3658 27.95 23.9084 27.7287 24.3085 27.3349C24.7086 26.9411 24.9333 26.407 24.9333 25.85V17.45C24.9333 16.893 24.7086 16.3589 24.3085 15.9651C23.9084 15.5712 23.3658 15.35 22.8 15.35H13.2ZM21.7333 14.3V12.725C21.7333 11.7503 21.34 10.8156 20.6399 10.1264C19.9397 9.43719 18.9901 9.05 18 9.05C17.0099 9.05 16.0603 9.43719 15.3601 10.1264C14.66 10.8156 14.2667 11.7503 14.2667 12.725V14.3H21.7333ZM18 20.6C17.5757 20.6 17.1687 20.7659 16.8686 21.0613C16.5686 21.3567 16.4 21.7573 16.4 22.175C16.4 22.5927 16.5686 22.9933 16.8686 23.2887C17.1687 23.5841 17.5757 23.75 18 23.75C18.4243 23.75 18.8313 23.5841 19.1314 23.2887C19.4314 22.9933 19.6 22.5927 19.6 22.175C19.6 21.7573 19.4314 21.3567 19.1314 21.0613C18.8313 20.7659 18.4243 20.6 18 20.6ZM18 19.55C18.7072 19.55 19.3855 19.8266 19.8856 20.3188C20.3857 20.8111 20.6667 21.4788 20.6667 22.175C20.6667 22.8712 20.3857 23.5389 19.8856 24.0312C19.3855 24.5234 18.7072 24.8 18 24.8C17.2928 24.8 16.6145 24.5234 16.1144 24.0312C15.6143 23.5389 15.3333 22.8712 15.3333 22.175C15.3333 21.4788 15.6143 20.8111 16.1144 20.3188C16.6145 19.8266 17.2928 19.55 18 19.55Z" fill="#D4A850"/>
</svg>
